Coordinates
version=1
nRows=32
nColumns=12
inDegrees=yes

Units are S.I. units (second, meters, Newtons, ...)
Angles are in degrees

endheader
time	SC_y	SC_z	SC_x	AC_y	AC_z	AC_x	GH_y	GH_z	GH_yy	EL_x	PS_y
       0.0              -18.48           39.6          51.77          30.46          3.589          15.26          32.91           25.3         -125.7          123.1          57.64
   0.03164              -18.48          39.59          51.77          30.46          3.586          15.25          32.89           25.3         -125.7          123.1          57.63
   0.06328              -18.49          39.59          51.77          30.47          3.582          15.25          32.88           25.3         -125.7          123.1          57.62
   0.09492               -18.5          39.58          51.77          30.47          3.579          15.24          32.87           25.3         -125.7          123.1          57.61
    0.1266               -18.5          39.58          51.76          30.48          3.575          15.24          32.85           25.3         -125.7          123.1           57.6
    0.1582              -18.51          39.57          51.76          30.48          3.571          15.23          32.84           25.3         -125.7          123.1          57.59
    0.1898              -18.52          39.57          51.76          30.49          3.567          15.22          32.82           25.3         -125.7          123.1          57.58
    0.2215              -18.52          39.56          51.76           30.5          3.562          15.22           32.8           25.3         -125.7          123.0          57.57
    0.2531              -18.53          39.56          51.75           30.5          3.558          15.21          32.78           25.3         -125.7          123.0          57.56
    0.2848              -18.54          39.55          51.75          30.51          3.552           15.2          32.76           25.3         -125.7          123.0          57.55
    0.3164              -18.55          39.55          51.75          30.52          3.547          15.19          32.74           25.3         -125.8          123.0          57.54
     0.348              -18.56          39.54          51.74          30.53          3.541          15.18          32.72           25.3         -125.8          123.0          57.52
    0.3797              -18.57          39.53          51.74          30.54          3.534          15.17          32.69           25.3         -125.8          123.0          57.51
    0.4113              -18.58          39.52          51.73          30.55          3.528          15.16          32.67           25.3         -125.8          123.0          57.49
     0.443               -18.6          39.51          51.73          30.56           3.52          15.15          32.64           25.3         -125.8          123.0          57.47
    0.4746              -18.61           39.5          51.73          30.57          3.512          15.14           32.6           25.3         -125.8          123.0          57.45
    0.5062              -18.63          39.49          51.72          30.59          3.503          15.13          32.57           25.3         -125.8          123.0          57.43
    0.5379              -18.64          39.48          51.71           30.6          3.493          15.11          32.53           25.3         -125.8          123.0          57.41
    0.5695              -18.66          39.47          51.71          30.62          3.483          15.09          32.49           25.3         -125.8          123.0          57.39
    0.6012              -18.68          39.45           51.7          30.64          3.471          15.08          32.44           25.3         -125.8          123.0          57.36
    0.6328               -18.7          39.44          51.69          30.65          3.458          15.06          32.39           25.3         -125.8          122.9          57.33
    0.6644              -18.73          39.42          51.68          30.68          3.444          15.04          32.34           25.3         -125.8          122.9           57.3
    0.6961              -18.75           39.4          51.68           30.7          3.429          15.01          32.28           25.3         -125.8          122.9          57.26
    0.7277              -18.78          39.38          51.67          30.73          3.412          14.99          32.21           25.3         -125.8          122.9          57.22
    0.7594              -18.82          39.36          51.65          30.75          3.393          14.96          32.14           25.3         -125.8          122.9          57.17
     0.791              -18.85          39.33          51.64          30.79          3.372          14.92          32.05           25.3         -125.8          122.9          57.12
    0.8226              -18.89          39.31          51.63          30.82          3.348          14.89          31.96           25.3         -125.8          122.8          57.07
    0.8543              -18.94          39.27          51.61          30.86          3.321          14.85          31.85           25.3         -125.8          122.8           57.0
    0.8859              -18.99          39.24          51.59          30.91          3.291           14.8          31.73          25.31         -125.9          122.8          56.93
    0.9176              -19.05           39.2          51.57          30.96          3.257          14.75           31.6          25.31         -125.9          122.8          56.85
    0.9492              -19.12          39.15          51.55          31.02          3.217          14.69          31.45          25.31         -125.9          122.7          56.76
    0.9808              -19.19           39.1          51.52          31.09          3.172          14.62          31.27          25.31         -125.9          122.7          56.65
